# xmcd CD database file generated by OrangeCD 5.2
#
# Track frame offsets:
#	150
#	14852
#	35490
#	52663
#	71898
#	94509
#	110040
#	131726
#	143939
#	159192
#	171443
#	187338
#	201529
#	215658
#	229679
#	245327
#	261032
#	275970
#	290305
#
# Disc length: 4088 seconds
#
# Revision: 0
# Processed by: cddbd v1.5.2PL0 Copyright (c) Steve Scherf et al.
# Submitted via: OrangeCD 5.2
#
DISCID=310ff613
DTITLE=Clifton Chenier - Louisiana Blues and Zydeco (Rmx)
DYEAR=2005
DGENRE=Blues
TTITLE0=Zydeco et Pas Sale
TTITLE1=Lafayette Waltz
TTITLE2=Louisiana Two Step
TTITLE3=Clifton's Waltz
TTITLE4=Louisiana Blues
TTITLE5=Hot Rod
TTITLE6=Banana Man
TTITLE7=Ay-Tete-Fee
TTITLE8=It's Hard
TTITLE9=I Can't Stand
TTITLE10=I Can Look Down at Your Woman
TTITLE11=Accordion Boogie [#]
TTITLE12=Banana Man [Take 2][#]
TTITLE13=Ay, Ai Ai [#]
TTITLE14=Clifton's Blues (Where Can My Baby Be)
TTITLE15=Let's Rock a While
TTITLE16=Elmore's Blues [#]
TTITLE17=Clifton's Two Step [#]
TTITLE18=Zydeco et Pas Sale [Take 1][#]
EXTD=
EXTT0=
EXTT1=
EXTT2=
EXTT3=
EXTT4=
EXTT5=
EXTT6=
EXTT7=
EXTT8=
EXTT9=
EXTT10=
EXTT11=
EXTT12=
EXTT13=
EXTT14=
EXTT15=
EXTT16=
EXTT17=
EXTT18=
PLAYORDER=
